#!OML:ASF G:\JayActor3\Patient Classification 1\Patient 1\Session 6\male.ASF
:FULLY-SPECIFIED
:DEGREES
1579
root 10.5073 14.2188 -4.74322 49.772 -72.3464 -19.2163
lowerback 36.9258 -2.26094 2.54758
upperback 20.7041 -4.37887 -0.137045
thorax 4.38654 -2.76589 -0.307012
lowerneck 0.283303 6.47443 1.09317
upperneck -11.693 8.76563 -0.835298
head -3.75466 4.32434 -0.747442
rclavicle 1.27222e-014 3.55825e-014
rhumerus -8.08572 11.6618 -77.3493
rradius 70.6596
rwrist -6.72934
rhand -25.0449 -10.0573
rfingers 7.12502
rthumb 1.46819 -40.032
lclavicle 1.27222e-014 3.55825e-014
lhumerus 51.4858 8.44195 50.6898
lradius 37.7428
lwrist 21.9222
lhand -21.7382 11.7258
lfingers 7.12502
lthumb 4.66154 41.6545
rfemur -80.9221 -4.00391 28.3782
rtibia 76.2825
rfoot -25.2873 -14.6963
rtoes -4.19993
lfemur -82.9482 14.1544 -31.3946
ltibia 74.6998
lfoot -25.4895 13.9644
ltoes -0.873469
1580
root 10.5061 14.2171 -4.73863 50.0749 -72.3452 -19.4401
lowerback 36.8893 -2.24613 2.5279
upperback 20.7117 -4.36908 -0.140034
thorax 4.40719 -2.76269 -0.304914
lowerneck 0.263657 6.47479 1.0998
upperneck -11.6896 8.76586 -0.837781
head -3.74928 4.32439 -0.748373
rclavicle 5.40694e-014 -1.28216e-014
rhumerus -8.13371 11.6463 -77.3633
rradius 70.7069
rwrist -6.73177
rhand -25.0925 -10.0459
rfingers 7.12502
rthumb 1.4222 -40.0209
lclavicle 5.40694e-014 -1.28216e-014
lhumerus 51.5182 8.46432 50.5734
lradius 37.6631
lwrist 21.8613
lhand -21.8992 11.6576
lfingers 7.12502
lthumb 4.50606 41.5896
rfemur -81.0079 -3.97163 28.4384
rtibia 76.2752
rfoot -25.2565 -14.6648
rtoes -4.22041
lfemur -83.0691 14.1644 -31.3711
ltibia 74.7396
lfoot -25.5056 14.0019
ltoes -0.921221
1581
root 10.5048 14.2148 -4.73414 50.3852 -72.3429 -19.6648
lowerback 36.8453 -2.23471 2.51184
upperback 20.717 -4.36181 -0.146338
thorax 4.42723 -2.75989 -0.307633
lowerneck 0.238388 6.47755 1.11096
upperneck -11.6844 8.76892 -0.845458
head -3.74165 4.32592 -0.751499
rclavicle -5.24792e-014 -2.89232e-014
rhumerus -8.18228 11.6363 -77.3834
rradius 70.7456
rwrist -6.73468
rhand -25.1336 -10.0391
rfingers 7.12502
rthumb 1.38252 -40.0144
lclavicle -5.24792e-014 -2.89232e-014
lhumerus 51.5447 8.47558 50.4383
lradius 37.5811
lwrist 21.7968
lhand -22.0262 11.53
lfingers 7.12502
lthumb 4.38345 41.4646
rfemur -81.1043 -3.93962 28.5006
rtibia 76.2729
rfoot -25.2283 -14.6299
rtoes -4.23661
lfemur -83.1968 14.1597 -31.3364
ltibia 74.7839
lfoot -25.5243 14.052
ltoes -0.9744
1582
root 10.5034 14.2129 -4.72977 50.6807 -72.337 -19.878
lowerback 36.8089 -2.22706 2.49931
upperback 20.7198 -4.3574 -0.154341
thorax 4.44176 -2.75799 -0.312637
lowerneck 0.214886 6.48276 1.11894
upperneck -11.6853 8.77578 -0.848465
head -3.73686 4.32917 -0.752973
rclavicle -4.92986e-014 -4.39314e-014
rhumerus -8.2321 11.6262 -77.4096
rradius 70.7759
rwrist -6.73504
rhand -25.1584 -10.0337
rfingers 7.12502
rthumb 1.35857 -40.0092
lclavicle -4.92986e-014 -4.39314e-014
lhumerus 51.5701 8.47782 50.2955
lradius 37.4982
lwrist 21.7284
lhand -22.117 11.3684
lfingers 7.12502
lthumb 4.29577 41.3049
rfemur -81.1953 -3.9119 28.5615
rtibia 76.2707
rfoot -25.2051 -14.5901
rtoes -4.24184
lfemur -83.3175 14.1518 -31.2992
ltibia 74.8266
lfoot -25.5455 14.0935
ltoes -1.00471
1583
root 10.5018 14.2112 -4.72571 50.9764 -72.3289 -20.0993
lowerback 36.7838 -2.21784 2.48776
upperback 20.7211 -4.35064 -0.161859
thorax 4.45095 -2.75504 -0.317687
lowerneck 0.198809 6.48984 1.1197
upperneck -11.6986 8.78612 -0.842146
head -3.73872 4.33382 -0.751071
rclavicle -4.45278e-014 7.55382e-015
rhumerus -8.28379 11.6147 -77.4387
rradius 70.7982
rwrist -6.73259
rhand -25.1715 -10.029
rfingers 7.12502
rthumb 1.34596 -40.0045
lclavicle -4.45278e-014 7.55382e-015
lhumerus 51.5973 8.47157 50.156
lradius 37.4213
lwrist 21.653
lhand -22.1724 11.203
lfingers 7.12502
lthumb 4.24234 41.1405
rfemur -81.2745 -3.88025 28.6231
rtibia 76.267
rfoot -25.1859 -14.5512
rtoes -4.24771
lfemur -83.4289 14.1475 -31.2552
ltibia 74.8683
lfoot -25.5636 14.136
ltoes -1.03769
